<?xml version="1.0" standalone="no"?>
<!DOCTYPE svg PUBLIC "-//W3C//DTD SVG 20010904//EN"
 "http://www.w3.org/TR/2001/REC-SVG-20010904/DTD/svg10.dtd">
<svg version="1.0" xmlns="http://www.w3.org/2000/svg"
 width="952.000000pt" height="952.000000pt" viewBox="0 0 952.000000 952.000000"
 preserveAspectRatio="xMidYMid meet">
<metadata>
Created by potrace 1.14, written by Peter Selinger 2001-2017
</metadata>
<g transform="translate(0.000000,952.000000) scale(0.100000,-0.100000)"
fill="#000000" stroke="none">
<path d="M1368 9442 c-15 -3 -24 -24 -15 -35 1 -2 -3 -10 -9 -18 -7 -8 -15
-27 -18 -44 -3 -16 -9 -41 -12 -55 -22 -105 -43 -229 -49 -290 -3 -25 -7 -58
-9 -75 -5 -29 -20 -280 -19 -320 0 -25 12 -179 18 -220 2 -16 6 -59 10 -93 3
-35 11 -75 16 -89 5 -14 8 -28 5 -30 -2 -3 5 -30 16 -61 11 -32 21 -61 23 -67
2 -5 6 -21 10 -33 15 -47 88 -178 123 -222 51 -63 126 -135 175 -169 46 -31
147 -84 147 -77 0 3 15 0 33 -5 55 -16 257 -27 276 -14 5 3 12 2 15 -3 3 -4
30 -5 60 -2 31 3 56 3 56 0 0 -6 88 -3 107 4 7 3 14 2 17 -3 3 -4 30 -4 60 -1
31 3 56 4 56 1 0 -7 144 -5 157 1 4 2 19 3 33 1 44 -6 149 -5 159 1 5 4 12 3
15 -2 3 -4 30 -5 60 -2 31 3 56 3 56 0 0 -6 88 -3 107 4 7 3 14 2 17 -3 3 -4
30 -4 60 -1 31 3 56 3 56 0 0 -6 88 -3 107 4 7 3 14 2 17 -3 3 -4 30 -4 60 -1
31 3 56 4 56 1 0 -4 25 -6 55 -6 30 0 55 3 55 7 0 4 6 5 14 2 25 -9 106 -9
109 0 2 6 6 2 10 -7 3 -9 2 -17 -3 -17 -5 0 -35 -17 -67 -38 -32 -21 -85 -56
-118 -78 -33 -21 -61 -42 -63 -46 -2 -5 -8 -8 -12 -8 -7 0 -110 -65 -190 -120
-8 -6 -114 -75 -235 -155 -121 -79 -227 -149 -235 -155 -116 -79 -206 -144
-208 -151 -2 -5 -8 -9 -13 -9 -37 0 -321 -305 -302 -324 4 -3 2 -6 -4 -6 -16
0 -90 -159 -112 -240 -37 -137 -44 -212 -45 -522 -1 -124 -4 -229 -7 -233 -6
-6 -107 -24 -221 -40 -24 -3 -51 -8 -60 -11 -9 -3 -25 -7 -35 -9 -68 -14 -119
-28 -198 -55 -49 -16 -94 -32 -100 -33 -53 -16 -238 -131 -299 -186 -53 -48
-166 -164 -166 -171 0 -3 -8 -15 -17 -26 -51 -55 -140 -232 -172 -340 -74
-249 -82 -454 -27 -709 22 -103 107 -322 134 -345 14 -11 43 -15 118 -14 l99
0 1 100 c2 108 28 205 79 297 32 56 123 152 154 162 11 3 21 11 21 16 0 5 9 9
20 9 11 0 20 4 20 9 0 9 5 11 98 36 83 22 154 28 352 27 102 0 190 -1 196 -1
7 -1 9 -85 8 -268 -3 -344 -12 -507 -40 -713 -3 -19 -7 -48 -9 -65 -5 -35 -12
-74 -26 -130 -5 -22 -12 -51 -15 -65 -22 -107 -144 -389 -190 -441 -8 -8 -14
-21 -14 -27 0 -6 -6 -15 -12 -19 -7 -4 -28 -30 -47 -58 -50 -73 -198 -214
-278 -265 l-70 -43 29 -76 c16 -42 34 -92 40 -111 5 -19 14 -40 19 -46 5 -6 7
-13 4 -16 -3 -3 0 -10 8 -16 10 -8 38 -4 113 18 54 16 110 33 124 38 14 5 28
10 33 10 43 3 381 149 522 226 17 9 36 16 43 16 6 0 12 4 12 9 0 5 8 11 18 14
16 5 62 31 87 50 5 4 57 38 115 77 58 38 118 79 133 92 131 106 175 144 262
233 123 125 137 141 208 235 32 41 60 80 65 85 17 23 88 132 100 155 33 60 66
125 67 130 1 3 11 25 22 50 26 56 84 220 77 220 -3 0 0 8 5 18 6 11 12 30 14
43 3 13 10 42 15 64 12 46 19 88 28 160 3 28 7 61 10 75 12 72 16 415 19 1520
1 668 5 1231 8 1250 4 19 8 53 11 75 6 56 15 103 28 150 5 22 11 45 12 50 1 6
5 16 9 23 5 6 6 12 3 12 -7 0 55 143 82 192 64 113 139 206 279 345 l113 112
70 -2 c39 -1 70 1 70 5 0 4 12 3 28 -1 15 -4 38 -5 52 -1 14 4 34 4 45 0 11
-4 29 -4 41 0 11 5 27 4 34 0 8 -5 18 -6 23 -3 6 3 -27 -42 -72 -100 -44 -58
-81 -107 -81 -111 0 -3 -14 -26 -31 -51 -39 -57 -129 -233 -129 -252 0 -7 -4
-13 -10 -13 -5 0 -10 -10 -10 -23 0 -13 -4 -27 -9 -32 -10 -11 -54 -144 -54
-162 0 -7 -4 -13 -8 -13 -3 0 -9 -12 -12 -27 -3 -16 -13 -62 -22 -103 -9 -41
-19 -86 -21 -100 -24 -145 -27 -170 -40 -325 -2 -33 -6 -645 -8 -1360 -2 -715
-6 -1325 -10 -1355 -14 -111 -16 -126 -21 -155 -18 -97 -65 -236 -112 -330
-30 -60 -123 -211 -153 -248 -5 -7 -30 -39 -56 -72 -26 -33 -53 -67 -61 -75
-7 -8 -23 -26 -34 -39 -17 -21 -67 -79 -158 -180 -13 -14 -99 -105 -192 -202
l-168 -176 -98 -32 c-54 -18 -104 -37 -111 -43 -6 -6 -12 -7 -12 -3 0 4 -6 3
-12 -2 -7 -6 -31 -16 -53 -23 -22 -7 -50 -19 -62 -26 -13 -8 -23 -12 -23 -9 0
4 -12 -1 -27 -9 -16 -8 -81 -41 -146 -71 -66 -31 -157 -79 -204 -106 -47 -27
-87 -49 -89 -49 -9 0 -306 -195 -342 -225 -9 -7 -50 -39 -91 -69 -41 -31 -99
-77 -129 -103 -30 -27 -75 -66 -101 -88 -103 -89 -352 -349 -423 -441 -12 -16
-25 -31 -28 -34 -4 -3 -40 -50 -81 -105 -41 -55 -77 -101 -81 -103 -5 -2 -8
-8 -8 -12 0 -5 -20 -37 -44 -72 -65 -93 -206 -334 -206 -352 0 -3 71 -6 159
-5 l158 1 34 30 c19 16 54 46 79 66 25 20 47 40 50 43 3 3 37 29 75 57 39 29
81 61 95 72 14 11 30 20 37 20 6 0 13 4 15 9 2 5 55 41 118 79 254 153 502
267 770 352 52 16 109 34 125 39 17 6 41 12 55 15 50 10 70 15 78 19 4 3 24 8
44 11 21 3 57 10 80 15 72 16 113 23 203 35 28 4 61 9 75 11 72 13 207 19 395
19 182 0 240 -3 375 -19 71 -9 205 -30 254 -41 11 -3 30 -7 41 -9 22 -5 55
-13 83 -19 9 -2 46 -12 82 -21 36 -9 70 -18 75 -20 6 -1 17 -5 25 -8 18 -7 92
-30 103 -33 4 -1 8 -2 10 -4 1 -1 9 -3 17 -5 18 -4 113 -38 155 -56 17 -7 32
-13 35 -14 3 0 27 -11 54 -23 27 -12 51 -22 53 -22 10 0 262 -129 334 -170 41
-24 119 -72 173 -108 l99 -65 51 26 c28 15 80 42 116 62 36 20 94 53 130 72
36 20 79 44 95 53 17 9 57 32 90 50 33 18 69 39 80 45 19 12 43 25 215 118 41
22 107 58 145 80 39 22 93 51 120 66 28 14 52 28 55 31 3 3 20 13 38 22 59 31
185 100 301 165 62 34 117 63 122 63 5 0 9 5 9 12 0 6 3 8 6 5 4 -4 19 2 33
12 14 9 62 37 106 61 90 48 133 72 289 159 60 33 117 63 127 66 11 4 19 11 19
16 0 5 9 9 19 9 11 0 21 4 23 9 2 4 39 27 83 50 118 62 159 85 165 91 3 3 21
13 40 22 19 10 71 38 115 63 44 25 107 59 140 76 33 18 63 36 66 41 3 5 9 9
13 9 12 -1 76 33 76 40 0 5 24 57 53 116 49 101 154 339 182 413 1 3 8 21 16
40 7 19 12 38 11 43 -1 4 3 7 10 7 6 0 8 3 5 7 -4 3 -3 11 2 17 8 10 139 390
146 426 2 8 4 17 6 20 1 3 3 10 3 15 1 6 11 42 23 80 21 73 56 198 69 250 4
17 8 32 9 35 1 3 7 32 14 65 7 33 16 64 19 70 3 5 7 18 8 30 2 19 4 30 18 95
3 14 8 36 11 50 10 48 15 75 21 110 3 19 7 43 10 52 6 21 7 28 30 173 9 61 18
119 20 130 4 20 11 76 19 154 2 24 7 60 9 80 22 160 39 492 38 741 0 200 -14
525 -22 525 0 0 -3 33 -5 73 -3 40 -7 85 -10 100 -3 15 -8 55 -10 88 -3 34 -8
72 -10 85 -3 13 -7 42 -10 64 -3 22 -7 51 -10 65 -3 14 -8 41 -11 60 -4 19 -8
44 -10 55 -2 11 -7 36 -10 55 -4 19 -9 44 -11 55 -7 28 -22 96 -27 120 -2 11
-9 40 -16 65 -7 25 -13 50 -15 55 -8 37 -18 74 -25 95 -5 14 -18 59 -30 100
-12 41 -26 84 -30 95 -14 35 -44 120 -45 125 0 3 -20 55 -44 115 -60 147 -201
425 -286 559 -60 95 -177 262 -194 276 -3 3 -30 34 -60 70 -30 36 -98 108
-150 160 -81 80 -135 127 -294 256 -9 8 -22 14 -27 14 -6 0 -10 5 -10 10 0 6
-7 10 -15 10 -8 0 -15 5 -15 10 0 6 -6 10 -14 10 -8 0 -16 3 -18 8 -9 22 -314
191 -345 192 -7 0 -13 5 -13 10 0 6 -7 10 -15 10 -8 0 -23 4 -33 9 -9 5 -44
19 -77 31 -33 12 -69 26 -80 31 -17 7 -99 31 -155 44 -8 2 -15 4 -15 5 0 2 -3
3 -125 30 -95 21 -113 24 -193 35 -23 3 -53 8 -67 10 -14 2 -54 7 -90 10 -36
3 -81 8 -100 10 -109 15 -432 18 -2065 20 -990 1 -1827 5 -1860 9 -89 8 -166
31 -263 77 -69 33 -101 57 -162 118 -41 42 -80 85 -86 96 -26 48 -33 62 -47
95 -9 19 -18 52 -22 73 -4 20 -12 37 -19 38 -6 0 -51 2 -101 5 -49 2 -94 6
-100 7 -5 2 -18 2 -27 -1z m4187 -1947 c69 -6 88 -9 175 -25 81 -15 104 -21
150 -35 25 -8 48 -15 53 -15 4 0 21 -7 37 -15 16 -8 31 -15 32 -15 17 -1 64
-20 131 -53 45 -22 84 -41 87 -42 5 -1 62 -36 90 -55 8 -5 35 -23 60 -39 25
-16 55 -39 67 -50 12 -12 25 -21 28 -21 14 0 204 -186 256 -252 67 -84 136
-190 201 -308 70 -127 189 -414 176 -424 -1 -2 -39 -21 -83 -43 -44 -21 -100
-50 -125 -63 -25 -13 -47 -25 -50 -25 -9 -2 -85 -40 -90 -45 -3 -3 -97 -52
-210 -109 -113 -57 -342 -173 -510 -258 -168 -86 -415 -212 -550 -280 -135
-69 -251 -130 -257 -135 -7 -6 -14 -9 -14 -7 -7 18 -10 156 -6 247 1 23 -1 42
-5 42 -3 0 -4 8 -2 18 7 30 9 142 2 142 -3 0 -4 8 -2 18 7 30 9 142 2 142 -3
0 -4 8 -2 18 7 30 9 142 2 142 -3 0 -4 8 -2 18 7 30 9 142 2 142 -3 0 -4 8 -2
18 7 30 9 142 2 142 -3 0 -4 8 -2 18 7 30 9 142 2 142 -3 0 -4 8 -2 18 7 30 9
142 2 142 -3 0 -4 8 -2 18 7 30 9 142 2 142 -3 0 -4 8 -2 18 7 30 9 142 2 142
-3 0 -4 8 -2 18 7 30 9 142 2 142 -3 0 -4 8 -2 18 7 30 9 142 2 142 -3 0 -4 8
-2 18 8 34 9 142 1 142 -5 0 -5 4 -2 10 3 5 6 32 7 59 l0 49 141 -3 c78 -2
174 -6 212 -10z m-677 -62 c2 -18 2 -29 -1 -125 -1 -27 2 -48 6 -48 5 0 5 -5
1 -12 -4 -6 -6 -43 -6 -82 1 -39 1 -87 1 -106 -1 -19 -1 -50 0 -67 0 -18 1
-43 1 -55 0 -13 0 -54 0 -93 0 -38 -1 -86 -1 -105 -1 -19 -1 -50 0 -67 0 -18
1 -43 1 -55 0 -13 0 -54 0 -93 0 -38 -1 -86 -1 -105 -1 -19 -1 -50 0 -67 0
-18 1 -43 1 -55 0 -13 0 -54 0 -93 0 -38 -1 -86 -1 -105 -1 -19 -1 -50 0 -67
0 -18 1 -43 1 -55 0 -13 0 -54 0 -93 0 -38 -1 -86 -1 -105 -1 -19 -1 -50 0
-67 0 -18 1 -43 1 -55 0 -13 0 -54 0 -93 0 -38 -1 -86 -1 -105 -1 -19 -1 -50
0 -67 0 -18 1 -43 1 -55 0 -13 0 -54 0 -93 0 -38 -1 -86 -1 -105 -1 -19 -1
-50 0 -67 0 -18 1 -43 1 -55 0 -13 0 -54 0 -93 0 -38 -1 -86 -1 -105 -1 -19
-1 -50 0 -67 0 -18 1 -43 1 -55 0 -13 0 -54 0 -93 0 -38 -1 -86 -1 -105 -1
-19 -1 -73 0 -120 0 -47 0 -110 0 -140 0 -30 0 -84 1 -120 0 -36 -1 -81 -1
-100 -1 -19 -1 -73 0 -120 1 -86 1 -97 -2 -207 -1 -35 1 -63 5 -63 4 0 4 -10
0 -22 -4 -13 -6 -79 -5 -148 2 -69 3 -150 2 -180 0 -30 0 -84 1 -120 0 -36 -1
-81 -1 -100 -1 -19 -1 -73 0 -120 1 -86 1 -97 -2 -207 -1 -35 1 -63 5 -63 4 0
4 -10 0 -22 -4 -13 -6 -79 -5 -148 2 -69 2 -150 2 -180 0 -30 0 -85 0 -123 l0
-67 -47 6 c-26 3 -60 8 -77 11 -16 2 -48 6 -70 8 -22 2 -60 6 -85 10 -25 3
-89 8 -143 10 -53 2 -101 6 -105 8 -20 10 -472 -3 -612 -19 -78 -8 -117 -13
-149 -19 l-34 -6 29 34 c16 20 64 77 108 129 43 51 88 104 99 118 18 21 59 74
175 225 73 95 219 399 237 495 1 3 4 19 8 35 4 17 9 41 12 55 3 14 7 36 10 50
6 34 16 106 22 160 3 25 6 594 8 1265 2 1116 6 1398 20 1540 9 90 23 204 29
230 4 15 17 78 21 100 2 11 4 20 5 20 1 0 3 9 5 20 14 88 136 396 164 415 4 3
10 12 14 20 28 63 156 221 252 310 33 31 98 89 101 90 0 0 1 -8 2 -17z m2317
-1633 c6 -10 8 -18 19 -90 7 -42 23 -135 30 -170 3 -14 8 -50 10 -80 3 -30 8
-66 10 -80 7 -35 17 -158 21 -265 3 -49 6 -100 9 -111 4 -18 -4 -25 -37 -40
-23 -10 -48 -22 -56 -28 -7 -6 -20 -11 -28 -12 -7 -1 -19 -7 -26 -12 -12 -10
-694 -355 -1492 -756 -231 -116 -421 -214 -423 -218 -2 -5 -10 -8 -17 -8 -13
0 -27 45 -16 55 8 9 7 125 -1 125 -4 0 -5 6 -2 13 8 22 10 177 2 177 -4 0 -5
6 -2 14 8 21 10 196 2 196 -3 0 -4 8 -2 18 8 34 9 142 1 142 -5 0 -5 4 -2 10
3 5 6 39 6 75 1 56 3 65 19 65 10 0 20 3 22 8 4 9 148 84 148 76 0 -3 12 3 28
13 15 10 72 41 127 68 55 28 103 54 106 58 3 5 10 8 15 8 12 -1 338 162 342
172 2 4 8 7 14 7 8 0 373 181 960 478 98 49 180 87 183 84 3 -3 5 0 5 6 0 15
17 16 25 2z m99 -1337 c-2 -149 -9 -294 -18 -408 -3 -27 -7 -86 -11 -130 -3
-44 -8 -93 -10 -110 -3 -16 -7 -57 -10 -89 -3 -33 -7 -71 -9 -85 -3 -14 -7
-48 -10 -76 -4 -27 -9 -61 -11 -75 -3 -14 -7 -45 -10 -70 -2 -25 -6 -54 -9
-65 -2 -11 -7 -40 -11 -65 -3 -25 -9 -58 -11 -75 -3 -16 -7 -45 -10 -62 -2
-18 -8 -53 -14 -78 -6 -25 -13 -62 -16 -81 -3 -20 -8 -46 -10 -58 -3 -11 -7
-32 -10 -46 -6 -35 -27 -133 -30 -145 -2 -5 -5 -23 -9 -40 -3 -16 -7 -39 -10
-50 -2 -11 -5 -24 -6 -30 -1 -5 -5 -20 -10 -33 -5 -13 -11 -36 -14 -53 -3 -16
-12 -55 -21 -87 -8 -31 -17 -68 -20 -82 -3 -14 -11 -45 -19 -70 -30 -97 -55
-187 -59 -205 -16 -74 -216 -638 -251 -705 l-16 -31 -32 23 c-77 58 -229 160
-317 212 -52 31 -102 61 -110 66 -22 15 -376 190 -383 190 -4 0 -30 11 -59 24
-105 47 -333 125 -536 182 -9 3 -12 22 -10 69 2 36 0 65 -4 65 -4 0 -5 6 -2
13 8 22 10 177 2 177 -4 0 -4 10 1 21 4 12 4 41 1 65 -4 24 -4 44 -1 44 3 0 6
36 6 80 0 44 -3 80 -7 80 -4 0 -5 6 -2 13 8 22 10 177 2 177 -4 0 -4 10 1 21
4 12 4 41 1 65 -4 24 -4 44 -1 44 3 0 6 36 6 80 0 44 -3 80 -7 80 -4 0 -5 6
-2 13 8 22 10 177 2 177 -4 0 -3 11 2 25 6 17 6 25 -1 25 -6 0 -7 5 -4 10 4 6
7 43 7 84 l1 73 136 69 c75 38 139 73 142 77 3 5 9 8 13 8 3 -1 38 15 76 34
38 19 73 36 77 36 5 1 19 9 33 18 14 10 59 34 100 54 41 21 201 102 355 180
154 79 390 199 525 268 135 68 248 128 251 132 3 5 13 9 21 11 9 1 23 8 32 15
9 7 16 11 16 8 0 -3 27 10 61 29 33 18 67 34 75 34 8 0 14 4 14 9 0 4 29 21
65 37 36 15 71 34 77 41 5 7 14 11 18 8 4 -2 6 -75 4 -162z"/>
</g>
</svg>
